<?xml version="1.0" encoding="UTF-8"?>
<svg id="Layer_2" data-name="Layer 2" xmlns="http://www.w3.org/2000/svg" viewBox="0 0 733.01 767.26">
  <defs>
    <style>
      .cls-1 {
        fill: #fff;
      }

      .cls-2 {
        fill: none;
        opacity: .94;
      }

      .cls-3 {
        fill: #4063ad;
      }
    </style>
  </defs>
  <g id="Layer_1-2" data-name="Layer 1">
    <g id="Logo" class="cls-2">
      <g id="Elements">
        <path class="cls-1" d="m283.29,7.7c.24-.8.92-2.68,2.74-4.25,2.21-1.92,4.68-2.15,5.48-2.2h119.32c.75-.04,7.6-.3,12.1,5.19,3.43,4.18,3.24,8.95,3.17,10.09v352.77c.02,1.02,0,3.45-.94,5.37-.26.54-.54.93-.92,1.25-.93.8-2.04.86-2.39.88-1.03.04-1.78-.31-2.6-.7-.23-.11-.87-.42-2-1.28-.71-.54-1.65-1.34-2.68-2.44-20.9-21.92-41.79-43.84-62.69-65.76-2.77-2.76-7.04-7.71-10.04-15.04-2.59-6.32-3.23-11.97-3.36-15.66-.58-71.91-1.15-143.82-1.73-215.73-1.24-5.77-3.11-10.04-4.52-12.78-7.68-14.94-21.67-23.49-44.62-37.18-1.84-1.1-3.36-1.98-4.32-2.53Z"/>
        <path class="cls-1" d="m271.91,767.22h225.57c4.05.39,7.02-2.66,6.86-5.38-.12-2.01-1.97-3.98-4.55-4.61-6.58-.05-15.97-.76-26.71-3.84-7.87-2.26-24.18-6.93-37.28-20.27-19.16-19.51-19.68-45.6-19.6-52.65.1-19.41.19-38.81.29-58.22-.37-3.1-2.5-5.67-5.38-6.53-3.9-1.16-7,1.46-7.21,1.63-22.35,14.08-44.69,28.17-67.04,42.25-2.56,1.78-5.45,4.24-8.09,7.61-8.66,11.04-8.42,23.87-8.12,28.39.15,4.99.04,21.61-11.72,37.28-13.49,17.97-32.68,21.85-37.04,22.62-3.22.66-5.34,3.62-5,6.58.3,2.51,2.32,4.63,5,5.14Z"/>
        <path class="cls-3" d="m147.79,0c-15.6,1.37-56.1,7.03-93.77,38.24C24.63,62.58,10.91,90.92,5.03,105.58,2.4,114.56-.32,127.57.03,143.34c.29,13.16,2.62,24.17,5,32.28,4.71,14.44,12.9,34.14,27.48,54.76,17.76,25.12,37.68,41.25,51.49,50.73,48.97,32.9,97.94,65.79,146.91,98.69,19.46,11.53,47.8,31.69,73.09,64.63,15.75,20.51,26.04,40.4,32.8,56.47,2.01,8.23,8.64,39.67-8.4,73.03-19.27,37.71-54.55,49.99-61.52,52.26-3.54,1.04-5.54,4.57-4.77,7.69.63,2.52,2.99,4.47,5.86,4.71,15.23,0,37.6-2.08,62.04-12.33,18.9-7.92,31.69-17.65,36.72-21.68,20.34-16.32,32.07-34.47,38.33-46.02,6.24-12.75,15.71-36.31,16.52-67.25.76-28.93-6.38-51.64-11.53-64.56-10.03-18.03-26.96-44.65-53.61-71.48-25.05-25.21-54.16-43.27-111.35-78.35-32.99-20.24-67.78-40.38-109.52-74.36-11.99-9.76-28.9-23.95-39.77-48.28-11.21-25.08-10.71-47.6-9.8-58.22,1.07-8.96,4.6-28.15,18.73-47.27,15.45-20.9,34.87-29.92,43.23-33.24,4.26-.62,7.26-4.43,6.92-8.45-.31-3.62-3.28-6.67-7.11-7.11Z"/>
        <path class="cls-3" d="m732.94,179.96c1.01,37.48-9.03,63.68-16.99,79.09-36.19,70.09-128.14,108.37-232.1,98,4.31-2.26,10.79-5.45,18.83-8.85,29.29-12.32,47.68-13.67,63.01-18.05,35.87-10.27,58.41-38.34,66.12-48.04,30.56-38.49,31.8-83.19,31.18-101.32,0-.29,0-.57-.03-.83.03-.26.03-.54.03-.83.62-18.13-.62-62.82-31.18-101.32-7.7-9.7-30.24-37.77-66.12-48.04-15.33-4.38-33.72-5.73-63.01-18.05-8.04-3.4-14.53-6.59-18.83-8.85,103.96-10.38,195.92,27.91,232.1,98,7.96,15.41,18,41.61,16.99,79.09Z"/>
        <path class="cls-1" d="m9.06,427.37c1.23.85,2.82,2.14,4.32,4.03,2.15,2.72,3.13,5.42,3.6,7.13,1.21,11.53,2.89,23.79,5.19,36.68,2.14,12,4.59,23.3,7.21,33.86,2.18,8.91,5.26,18.85,9.66,29.4,8.64,20.73,19.46,36.86,28.82,48.56,5.98,7.42,15.8,17.82,30.36,26.85,16.65,10.33,32.33,14.44,42.27,16.24,7.01.91,14.03,1.83,21.04,2.74,1.68.41,4.13,1.21,6.72,2.88,3.1,2,5.04,4.37,6.1,5.91-32.29-2.06-64.59-4.12-96.88-6.18-6.03-.49-44.35-4.15-60.05-30.28-8.28-13.78-11.63-36.09-12.25-40.49-.92-6.54-1.21-12.04-1.3-15.85v-112.11c.08-1.11.38-3.07,1.54-5.19,1.2-2.19,2.75-3.51,3.65-4.18Z"/>
      </g>
    </g>
  </g>
</svg>