<?xml version="1.0" encoding="UTF-8"?>
<svg id="Layer_2" data-name="Layer 2" xmlns="http://www.w3.org/2000/svg" xmlns:xlink="http://www.w3.org/1999/xlink" viewBox="0 0 884 884">
  <defs>
    <style>
      .cls-1 {
        fill: #255ed5;
      }

      .cls-2 {
        fill: #efefef;
        filter: url(#drop-shadow-1);
      }

      .cls-3 {
        fill: #353535;
        stroke: #000;
        stroke-miterlimit: 10;
        stroke-width: .1px;
      }
    </style>
    <filter id="drop-shadow-1" filterUnits="userSpaceOnUse">
      <feOffset dx="2" dy="2"/>
      <feGaussianBlur result="blur" stdDeviation="15"/>
      <feFlood flood-color="#000" flood-opacity=".4"/>
      <feComposite in2="blur" operator="in"/>
      <feComposite in="SourceGraphic"/>
    </filter>
  </defs>
  <g id="Layer_1-2" data-name="Layer 1">
    <g id="Round_Dark" data-name="Round Dark">
      <rect class="cls-2" x="43.22" y="43.26" width="793.65" height="793.65" rx="396.82" ry="396.82"/>
      <g id="New">
        <g>
          <path class="cls-3" d="m392.61,212.44h85.36c4.76,0,6.69,2.69,6.69,6.69v234.27c0,10.06-4.93,4.83-9.76,0-15.62-18.62-30.26-34.73-42.89-42.89-6.11-6.11-8.45-7.08-8.45-17.53v-136.51c-4.07-14.2-13.98-26.01-31-31-11.04-3.58-10.51-13.03.06-13.03Z"/>
          <path class="cls-3" d="m418.86,630.29c20.98-10.9,47.64-29.92,46.49-31.15,7.81-5.48,12.52-9.82,12.52,0v46.65c2.47,26.61,21.66,40.2,55.26,42.58,6.89,0,6.89,11.9,0,11.9h-151.85c-10.85,0-10.85-12.99,0-12.99,18.37-5.46,28.27-15.91,30.76-30.76v-13.54c.18-5.09,1.89-9.54,6.81-12.68Z"/>
          <path class="cls-3" d="m213.63,485.33c0-18.82,11.15-22.11,14.09,0,3.87,75.34,35.34,121.36,92.2,124.77,16.81,3.17,18.8,10.33,0,10.33h-60.74c-29.59-2.82-46.69-23.93-45.73-54.3l.18-80.8Z"/>
        </g>
        <g>
          <path class="cls-1" d="m515.6,212.36h41.56c161.79,8.65,163.2,219.98,0,229.96h-41.53c-9.12,0-9.12-6.47,0-6.47,160.12-28.63,148.06-201.3,0-216.98-8.58.04-8.61-6.48-.03-6.51Z"/>
          <path class="cls-1" d="m312.64,212.4c-59.92,3.09-93.85,35.38-101.6,84.22-1.53,41.91,20.08,74.08,58,99.8,51.82,45.4,134.16,69.51,154.98,140.89.62,32.69-12.89,55.06-42.74,68.57-11.74,5.01-13.98,13.15,0,13.15,56.35-1.93,91.89-30.68,100.03-86.41,6.42-65.28-42.45-109.33-113.18-148.64-52.83-32.4-94.17-59.77-96.74-92.52-5.65-27.52,8-50.36,41.37-66.1,8.92-5.97,8.86-10.68-.12-12.95Z"/>
        </g>
      </g>
    </g>
  </g>
</svg>