<?xml version="1.0" encoding="UTF-8"?>
<svg id="Layer_2" data-name="Layer 2" xmlns="http://www.w3.org/2000/svg" viewBox="0 0 282.59 295.79">
  <defs>
    <style>
      .cls-1 {
        fill: #4064af;
      }

      .cls-2 {
        fill: #353535;
      }
    </style>
  </defs>
  <g id="Layer_1-2" data-name="Layer 1">
    <g>
      <path class="cls-2" d="m109.22,2.97c.09-.31.36-1.03,1.06-1.64.85-.74,1.81-.83,2.11-.85h46c.29-.02,2.93-.12,4.67,2,1.32,1.61,1.25,3.45,1.22,3.89v136c0,.39,0,1.33-.36,2.07-.1.21-.21.36-.35.48-.36.31-.79.33-.92.34-.4.02-.69-.12-1-.27-.09-.04-.34-.16-.77-.5-.27-.21-.64-.52-1.03-.94-8.06-8.45-16.11-16.9-24.17-25.35-1.07-1.06-2.71-2.97-3.87-5.8-1-2.44-1.25-4.61-1.3-6.04-.22-27.72-.44-55.44-.67-83.17-.48-2.23-1.2-3.87-1.74-4.93-2.96-5.76-8.35-9.06-17.2-14.33-.71-.42-1.29-.76-1.67-.98Z"/>
      <path class="cls-2" d="m104.83,295.78h86.96c1.56.15,2.71-1.03,2.64-2.08-.05-.78-.76-1.53-1.76-1.78-2.54-.02-6.16-.29-10.3-1.48-3.03-.87-9.32-2.67-14.37-7.81-7.38-7.52-7.59-17.58-7.56-20.3.04-7.48.07-14.96.11-22.44-.14-1.19-.96-2.19-2.07-2.52-1.5-.45-2.7.56-2.78.63-8.61,5.43-17.23,10.86-25.84,16.29-.99.69-2.1,1.64-3.12,2.93-3.34,4.26-3.25,9.2-3.13,10.94.06,1.93.02,8.33-4.52,14.37-5.2,6.93-12.6,8.42-14.28,8.72-1.24.26-2.06,1.4-1.93,2.54.11.97.89,1.78,1.93,1.98Z"/>
      <path class="cls-1" d="m56.97,0c-6.01.53-21.63,2.71-36.15,14.74C9.5,24.13,4.21,35.05,1.94,40.7.93,44.16-.12,49.18.01,55.26c.11,5.07,1.01,9.32,1.93,12.44,1.82,5.57,4.97,13.16,10.59,21.11,6.85,9.69,14.53,15.9,19.85,19.56,18.88,12.68,37.76,25.36,56.64,38.05,7.5,4.44,18.43,12.22,28.18,24.92,6.07,7.91,10.04,15.58,12.65,21.77.77,3.17,3.33,15.29-3.24,28.16-7.43,14.54-21.03,19.27-23.72,20.15-1.36.4-2.14,1.76-1.84,2.96.24.97,1.15,1.72,2.26,1.81,5.87,0,14.5-.8,23.92-4.75,7.29-3.06,12.22-6.81,14.16-8.36,7.84-6.29,12.37-13.29,14.78-17.74,2.4-4.91,6.06-14,6.37-25.93.29-11.15-2.46-19.91-4.44-24.89-3.87-6.95-10.39-17.22-20.67-27.56-9.66-9.72-20.88-16.68-42.93-30.2-12.72-7.8-26.13-15.57-42.22-28.67-4.62-3.76-11.14-9.23-15.33-18.61-4.32-9.67-4.13-18.35-3.78-22.44.41-3.45,1.77-10.85,7.22-18.22,5.96-8.06,13.44-11.53,16.67-12.81,1.64-.24,2.8-1.71,2.67-3.26-.12-1.4-1.26-2.57-2.74-2.74Z"/>
      <path class="cls-1" d="m282.56,69.38c.39,14.45-3.48,24.55-6.55,30.49-13.95,27.02-49.4,41.78-89.48,37.78,1.66-.87,4.16-2.1,7.26-3.41,11.29-4.75,18.38-5.27,24.29-6.96,13.83-3.96,22.52-14.78,25.49-18.52,11.78-14.84,12.26-32.07,12.02-39.06,0-.11,0-.22-.01-.32.01-.1.01-.21.01-.32.24-6.99-.24-24.22-12.02-39.06-2.97-3.74-11.66-14.56-25.49-18.52-5.91-1.69-13-2.21-24.29-6.96-3.1-1.31-5.6-2.54-7.26-3.41,40.08-4,75.53,10.76,89.48,37.78,3.07,5.94,6.94,16.04,6.55,30.49Z"/>
      <path class="cls-2" d="m3.49,164.76c.47.33,1.09.83,1.67,1.56.83,1.05,1.21,2.09,1.39,2.75.47,4.44,1.12,9.17,2,14.14.82,4.63,1.77,8.98,2.78,13.06.84,3.44,2.03,7.27,3.72,11.33,3.33,7.99,7.5,14.21,11.11,18.72,2.31,2.86,6.09,6.87,11.7,10.35,6.42,3.98,12.46,5.57,16.3,6.26,2.7.35,5.41.7,8.11,1.06.65.16,1.59.47,2.59,1.11,1.2.77,1.94,1.69,2.35,2.28-12.45-.79-24.9-1.59-37.35-2.38-2.32-.19-17.1-1.6-23.15-11.67-3.19-5.31-4.48-13.91-4.72-15.61-.35-2.52-.47-4.64-.5-6.11v-43.22c.03-.43.15-1.18.59-2,.46-.84,1.06-1.35,1.41-1.61Z"/>
    </g>
  </g>
</svg>