<?xml version="1.0" encoding="UTF-8"?>
<svg id="Layer_2" data-name="Layer 2" xmlns="http://www.w3.org/2000/svg" xmlns:xlink="http://www.w3.org/1999/xlink" viewBox="0 0 854 854">
  <defs>
    <style>
      .cls-1 {
        fill: #efefef;
        filter: url(#drop-shadow-1);
      }

      .cls-2 {
        fill: #4063ad;
      }

      .cls-3 {
        fill: none;
        filter: url(#AI_Dilate_3);
      }

      .cls-4 {
        fill: #353535;
      }
    </style>
    <filter id="drop-shadow-1" filterUnits="userSpaceOnUse">
      <feOffset dx="5" dy="5"/>
      <feGaussianBlur result="blur" stdDeviation="10"/>
      <feFlood flood-color="#000" flood-opacity=".75"/>
      <feComposite in2="blur" operator="in"/>
      <feComposite in="SourceGraphic"/>
    </filter>
    <filter id="AI_Dilate_3">
      <feMorphology in="SourceGraphic" operator="dilate" radius="3"/>
    </filter>
  </defs>
  <g id="Layer_1-2" data-name="Layer 1">
    <g>
      <rect class="cls-1" x="25.22" y="25.26" width="793.65" height="793.65" rx="84.28" ry="84.28"/>
      <g id="Elements" class="cls-3">
        <path class="cls-4" d="m371.29,178.15c.16-.54.62-1.79,1.83-2.85,1.48-1.29,3.14-1.44,3.67-1.47h79.88c.5-.03,5.09-.2,8.1,3.47,2.3,2.8,2.17,5.99,2.12,6.75v236.18c.02.68,0,2.31-.63,3.59-.18.36-.36.62-.61.84-.62.54-1.37.58-1.6.59-.69.03-1.19-.21-1.74-.47-.16-.07-.59-.28-1.34-.86-.47-.36-1.11-.9-1.8-1.63-13.99-14.68-27.98-29.35-41.97-44.03-1.86-1.85-4.71-5.16-6.72-10.07-1.73-4.23-2.16-8.01-2.25-10.48-.39-48.14-.77-96.29-1.16-144.43-.83-3.86-2.08-6.72-3.02-8.55-5.14-10-14.51-15.73-29.88-24.89-1.23-.74-2.25-1.32-2.89-1.7Z"/>
        <path class="cls-4" d="m363.67,686.65h151.02c2.71.26,4.7-1.78,4.59-3.6-.08-1.35-1.32-2.67-3.05-3.08-4.41-.04-10.69-.51-17.88-2.57-5.27-1.51-16.19-4.64-24.96-13.57-12.82-13.06-13.18-30.53-13.12-35.25.06-12.99.13-25.98.19-38.98-.25-2.07-1.67-3.8-3.6-4.37-2.61-.78-4.69.98-4.82,1.09-14.96,9.43-29.92,18.86-44.88,28.28-1.71,1.19-3.65,2.84-5.42,5.1-5.79,7.39-5.64,15.98-5.43,19.01.1,3.34.03,14.47-7.85,24.96-9.03,12.03-21.88,14.63-24.8,15.15-2.16.44-3.58,2.42-3.34,4.41.2,1.68,1.55,3.1,3.34,3.44Z"/>
        <path class="cls-2" d="m280.57,173c-10.44.92-37.56,4.71-62.78,25.6-19.68,16.3-28.86,35.27-32.8,45.09-1.76,6.01-3.58,14.72-3.34,25.28.19,8.81,1.76,16.18,3.34,21.61,3.15,9.67,8.64,22.86,18.4,36.66,11.89,16.82,25.23,27.62,34.48,33.96,32.79,22.02,65.57,44.05,98.36,66.07,13.03,7.72,32,21.21,48.93,43.27,10.55,13.73,17.43,27.05,21.96,37.81,1.34,5.51,5.79,26.56-5.62,48.9-12.9,25.25-36.52,33.47-41.19,34.99-2.37.7-3.71,3.06-3.19,5.15.42,1.69,2,2.99,3.92,3.15,10.2,0,25.18-1.39,41.54-8.25,12.65-5.31,21.22-11.82,24.58-14.51,13.62-10.92,21.47-23.08,25.66-30.81,4.17-8.53,10.52-24.31,11.06-45.02.51-19.37-4.27-34.57-7.72-43.22-6.72-12.07-18.05-29.9-35.89-47.85-16.77-16.88-36.26-28.97-74.55-52.45-22.09-13.55-45.38-27.03-73.32-49.78-8.03-6.54-19.35-16.03-26.63-32.32-7.5-16.79-7.17-31.87-6.56-38.98.72-6,3.08-18.85,12.54-31.65,10.34-13.99,23.34-20.03,28.94-22.25,2.85-.42,4.86-2.97,4.63-5.66-.21-2.43-2.19-4.46-4.76-4.76Z"/>
        <path class="cls-2" d="m672.33,293.48c.68,25.09-6.04,42.63-11.37,52.95-24.23,46.92-85.79,72.56-155.39,65.61,2.88-1.51,7.22-3.65,12.61-5.92,19.61-8.25,31.92-9.15,42.18-12.09,24.02-6.88,39.11-25.67,44.27-32.16,20.46-25.77,21.29-55.69,20.87-67.83,0-.19,0-.38-.02-.56.02-.17.02-.36.02-.56.42-12.14-.42-42.06-20.87-67.83-5.16-6.49-20.25-25.29-44.27-32.16-10.26-2.93-22.58-3.84-42.18-12.09-5.38-2.27-9.73-4.41-12.61-5.92,69.6-6.95,131.17,18.69,155.39,65.61,5.33,10.32,12.05,27.86,11.37,52.95Z"/>
        <path class="cls-4" d="m187.69,459.12c.82.57,1.89,1.43,2.89,2.7,1.44,1.82,2.1,3.63,2.41,4.78.81,7.72,1.94,15.93,3.47,24.55,1.43,8.03,3.07,15.6,4.82,22.67,1.46,5.97,3.52,12.62,6.46,19.68,5.78,13.88,13.03,24.68,19.3,32.51,4.01,4.97,10.58,11.93,20.32,17.98,11.14,6.92,21.65,9.67,28.3,10.87,4.7.61,9.39,1.22,14.09,1.83,1.13.27,2.77.81,4.5,1.93,2.08,1.34,3.37,2.93,4.08,3.96-21.62-1.38-43.24-2.76-64.86-4.14-4.04-.33-29.69-2.78-40.2-20.27-5.55-9.23-7.79-24.16-8.2-27.11-.61-4.38-.81-8.06-.87-10.61v-75.06c.06-.74.25-2.05,1.03-3.47.8-1.46,1.84-2.35,2.44-2.8Z"/>
      </g>
    </g>
  </g>
</svg>